<svg width="488" height="214" viewBox="0 0 488 214" fill="none" xmlns="http://www.w3.org/2000/svg">
<path d="M120.84 114.57H63.58V90.42H120.84V114.57ZM120.84 153.04H37.99V128.89H120.84V153.04ZM120.84 191.44H14.31V167.29H120.84V191.44ZM67.85 0H67.37C33.51 1.45 16.45 19.54 7.97998 35.23C2.60998 45.14 0 56.29 0 67.57V205.82H135.15V67.64C135.15 56.35 132.53 45.21 127.17 35.3C118.71 19.61 101.64 1.44 67.85 0Z" fill="white"/>
<path d="M223.38 120.01C221.59 121.94 219.25 122.9 216.29 122.9C213.33 122.9 210.99 121.94 209.2 120.01C207.48 118.08 206.58 115.47 206.58 112.16C206.58 108.85 207.47 106.24 209.2 104.31C210.92 102.38 213.33 101.42 216.29 101.42C219.25 101.42 221.59 102.38 223.38 104.31C225.1 106.24 226 108.85 226 112.16C226 115.47 225.11 118.08 223.32 120.01M225.99 95.44C223.1 93.79 219.87 92.96 216.36 92.96C212.85 92.96 209.68 93.79 206.79 95.44C203.9 97.09 201.63 99.36 199.98 102.25C198.33 105.14 197.43 108.44 197.43 112.16C197.43 115.88 198.26 119.18 199.98 122.07C201.63 125.03 203.97 127.3 206.79 128.95C209.68 130.6 212.85 131.43 216.36 131.43C219.87 131.43 223.04 130.6 225.93 128.95C228.82 127.3 231.09 125.03 232.74 122.07C234.39 119.11 235.29 115.81 235.29 112.16C235.29 108.51 234.46 105.21 232.81 102.25C231.16 99.36 228.89 97.02 226 95.44" fill="white"/>
<path d="M263.5 93.59V115.27C263.5 117.75 262.95 119.61 261.85 120.91C260.75 122.21 259.1 122.91 256.96 122.91C254.82 122.91 253.24 122.29 252.07 120.91C250.97 119.6 250.42 117.74 250.42 115.27V93.59H241.41V115.27C241.41 118.78 242.1 121.81 243.41 124.22C244.72 126.63 246.51 128.49 248.85 129.66C251.12 130.83 253.8 131.45 256.83 131.45C259.86 131.45 262.54 130.83 264.95 129.59C267.36 128.35 269.22 126.56 270.59 124.15C271.96 121.74 272.65 118.71 272.65 115.2V93.52H263.57L263.5 93.59Z" fill="white"/>
<path d="M182.36 112.58H169.28V109.21C169.28 106.73 169.83 104.81 170.93 103.5C172.03 102.19 173.68 101.5 175.82 101.5C177.96 101.5 179.54 102.19 180.71 103.5C181.81 104.81 182.36 106.73 182.36 109.21V112.58ZM184.02 94.76C181.75 93.59 179.07 92.97 176.04 92.97C173.01 92.97 170.33 93.59 167.92 94.83C165.51 96.07 163.65 97.86 162.28 100.27C160.91 102.68 160.22 105.71 160.22 109.22V130.9H169.3V120.51H182.38V130.9H191.39V109.22C191.39 105.71 190.7 102.68 189.39 100.27C188.08 97.86 186.29 96 183.95 94.83" fill="white"/>
<path d="M165.78 198.74L169.7 187.8L173.62 198.74H165.77H165.78ZM168.05 184.28L160.2 205.89H163.16L164.88 201.07H174.38L176.1 205.89H179.06L171.21 184.28H167.91H168.05Z" fill="white"/>
<path d="M185.39 191.58V188.83H182.57V205.9H185.39V196.61C185.39 192.69 187.45 191.45 190.14 191.45H190.9V188.49C188.22 188.49 186.36 189.66 185.39 191.59" fill="white"/>
<path d="M201.5 203.62C198.4 203.62 195.72 201.28 195.72 197.22C195.72 193.16 198.34 190.96 201.5 190.96C204.66 190.96 207.28 193.3 207.28 197.29C207.28 201.28 204.6 203.62 201.5 203.62ZM207.35 191.92C206.39 190.13 204.18 188.55 201.02 188.55C196.41 188.55 192.9 191.99 192.9 197.29C192.9 202.59 196.41 206.17 200.95 206.17C204.12 206.17 206.32 204.52 207.35 202.73V205.9H210.24V188.83H207.35V191.93V191.92Z" fill="white"/>
<path d="M223.86 203.62C220.76 203.62 218.08 201.28 218.08 197.29C218.08 193.3 220.76 190.96 223.86 190.96C226.96 190.96 229.64 193.23 229.64 197.22C229.64 201.21 227.02 203.62 223.86 203.62ZM224.48 188.48C221.45 188.48 219.18 190.06 218.08 191.92V182.77H215.26V205.82H218.08V202.65C219.11 204.51 221.38 206.09 224.48 206.09C229.09 206.09 232.6 202.51 232.6 197.21C232.6 191.91 229.09 188.47 224.48 188.47" fill="white"/>
<path d="M254.55 203.62C249.94 203.62 246.57 200.32 246.57 195.02C246.57 189.72 250.01 186.42 254.55 186.42C259.09 186.42 262.53 189.72 262.53 195.02C262.53 200.32 259.09 203.62 254.55 203.62ZM254.55 183.87C248.43 183.87 243.68 188.48 243.68 194.95C243.68 201.42 248.5 206.03 254.55 206.03C260.6 206.03 265.42 201.42 265.42 194.95C265.42 188.48 260.67 183.87 254.55 183.87Z" fill="white"/>
<path d="M278.43 203.62C275.33 203.62 272.65 201.28 272.65 197.29C272.65 193.3 275.33 190.96 278.43 190.96C281.53 190.96 284.21 193.23 284.21 197.22C284.21 201.21 281.59 203.62 278.43 203.62ZM278.98 188.48C275.88 188.48 273.61 190.13 272.58 191.92V188.75H269.76V213.94H272.58V202.72C273.61 204.44 275.88 206.16 278.98 206.16C283.59 206.16 287.1 202.58 287.1 197.28C287.1 191.98 283.59 188.54 278.98 188.54" fill="white"/>
<path d="M293.16 196.05C293.5 192.75 295.78 190.89 298.53 190.89C301.49 190.89 303.97 192.75 303.9 196.05H293.1H293.17H293.16ZM298.66 188.48C293.71 188.48 290.2 191.85 290.2 197.29C290.2 202.73 293.78 206.17 298.66 206.17C302.93 206.17 305.61 203.76 306.51 200.6H303.48C302.86 202.46 301.21 203.77 298.66 203.77C295.77 203.77 293.36 201.84 293.09 198.4H306.72C306.72 197.78 306.79 197.3 306.79 196.68C306.79 192 303.56 188.49 298.6 188.49" fill="white"/>
<path d="M319.31 188.48C317.04 188.48 314.97 189.44 313.8 191.23V188.82H310.98V205.89H313.8V196.46C313.8 192.81 315.8 190.95 318.69 190.95C321.58 190.95 323.44 192.74 323.44 196.18V205.81H326.26V195.76C326.26 190.87 323.23 188.47 319.31 188.47" fill="white"/>
<path d="M351.31 197.91C351.31 201.9 349.18 203.62 346.01 203.62C342.84 203.62 340.64 201.9 340.64 197.91V184.15H337.82V197.84C337.82 203.48 341.47 206.1 346.01 206.1C350.55 206.1 354.2 203.48 354.2 197.84V184.15H351.38V197.91H351.31Z" fill="white"/>
<path d="M367.62 188.48C365.35 188.48 363.28 189.44 362.11 191.23V188.82H359.29V205.89H362.11V196.46C362.11 192.81 364.11 190.95 367 190.95C369.89 190.95 371.75 192.74 371.75 196.18V205.81H374.57V195.76C374.57 190.87 371.54 188.47 367.62 188.47" fill="white"/>
<path d="M382.27 188.83H379.45V205.9H382.27V188.83Z" fill="white"/>
<path d="M380.9 182.29C379.87 182.29 379.04 183.12 379.04 184.15C379.04 185.18 379.87 186.01 380.9 186.01C381.86 186.01 382.69 185.18 382.69 184.15C382.69 183.12 381.86 182.29 380.9 182.29Z" fill="white"/>
<path d="M393.7 203.28L388.4 188.83H385.3L392.05 205.89H395.35L402.03 188.83H399L393.7 203.28Z" fill="white"/>
<path d="M406.29 196.05C406.63 192.75 408.91 190.89 411.66 190.89C414.62 190.89 417.1 192.75 417.03 196.05H406.23H406.3H406.29ZM411.8 188.48C406.85 188.48 403.34 191.85 403.34 197.29C403.34 202.73 406.92 206.17 411.8 206.17C416.07 206.17 418.75 203.76 419.65 200.6H416.62C416 202.46 414.35 203.77 411.8 203.77C408.91 203.77 406.5 201.84 406.23 198.4H419.86C419.86 197.78 419.93 197.3 419.93 196.68C419.93 192 416.7 188.49 411.74 188.49" fill="white"/>
<path d="M426.94 191.58V188.83H424.12V205.9H426.94V196.61C426.94 192.69 429 191.45 431.69 191.45H432.45V188.49C429.77 188.49 427.91 189.66 426.94 191.59" fill="white"/>
<path d="M438.22 193.3C438.22 191.92 439.46 190.96 441.52 190.96C443.79 190.96 445.1 192.2 445.24 193.92H448.06C447.85 190.62 445.38 188.55 441.59 188.55C437.8 188.55 435.33 190.68 435.33 193.3C435.33 199.63 445.45 197.43 445.45 201.21C445.45 202.59 444.21 203.76 441.94 203.76C439.53 203.76 438.09 202.52 437.95 200.87H434.99C435.2 203.97 437.95 206.17 441.94 206.17C445.72 206.17 448.2 204.04 448.2 201.28C448.06 195.16 438.15 197.36 438.15 193.37" fill="white"/>
<path d="M453.91 182.29C452.88 182.29 452.05 183.12 452.05 184.15C452.05 185.18 452.88 186.01 453.91 186.01C454.87 186.01 455.7 185.18 455.7 184.15C455.7 183.12 454.87 182.29 453.91 182.29Z" fill="white"/>
<path d="M455.29 188.83H452.47V205.9H455.29V188.83Z" fill="white"/>
<path d="M463.69 184.49H460.87V188.76H458.67V191.1H460.87V201.15C460.87 204.59 462.59 205.83 465.62 205.83H468.17V203.42H466.11C464.39 203.42 463.77 202.8 463.77 201.15V191.1H468.24V188.76H463.77V184.49H463.7H463.69Z" fill="white"/>
<path d="M479.1 202.59L473.73 188.83H470.57L477.45 205.69L474.15 213.88H477.04L487.36 188.83H484.4L479.1 202.59Z" fill="white"/>
<path d="M460.45 173.27C460.45 174.23 461.21 174.99 462.17 174.99C463.06 174.99 463.89 174.23 463.89 173.27C463.89 172.31 463.13 171.55 462.17 171.55C461.21 171.55 460.45 172.31 460.45 173.27Z" fill="white"/>
<path d="M400.65 148.64C401.54 148.64 402.37 147.88 402.37 146.92C402.37 145.96 401.61 145.2 400.65 145.2C399.69 145.2 398.93 145.96 398.93 146.92C398.93 147.88 399.69 148.64 400.65 148.64Z" fill="white"/>
<path d="M395.83 148.64C396.72 148.64 397.55 147.88 397.55 146.92C397.55 145.96 396.79 145.2 395.83 145.2C394.87 145.2 394.11 145.96 394.11 146.92C394.11 147.88 394.87 148.64 395.83 148.64Z" fill="white"/>
<path d="M439.53 166.32H435.75C432.93 166.32 430.59 163.98 430.59 161.16V158.54C430.59 156.06 432.59 154.07 435.06 154.07C437.53 154.07 439.53 156.07 439.53 158.54V166.32ZM399.14 166.32H396.25C393.15 166.32 390.61 163.29 390.61 160.2C390.61 157.11 393.16 154.08 396.25 154.08H399.14V166.33V166.32ZM435.06 151.73C431.07 151.73 427.83 154.96 427.83 158.89V163.23C427.83 164.95 426.45 166.33 424.73 166.33H417.3C414.2 166.33 411.66 163.3 411.66 160.21C411.66 157.12 414.21 154.09 417.3 154.09H421.57V151.75H417.3C412.62 151.75 408.84 155.53 408.84 160.21C408.84 162.62 409.87 164.75 411.46 166.33H401.96V151.74H396.32C391.64 151.74 387.86 155.52 387.86 160.2C387.86 164.88 391.64 168.66 396.32 168.66H424.81C426.94 168.66 428.8 167.56 429.83 165.91C431.28 167.63 433.48 168.66 435.89 168.66H442.43V159.03C442.43 155.04 439.2 151.8 435.2 151.8" fill="white"/>
<path d="M487.36 145.06H484.54V168.66H487.36V145.06Z" fill="white"/>
<path d="M477.24 166.32H472.15C471.94 160.88 469.74 156.2 466.23 153.66C463.13 151.46 459.35 150.98 455.22 152.35L456.11 154.55C459.34 153.45 462.3 153.79 464.64 155.44C467.46 157.44 469.18 161.7 469.39 166.31H450.47C449.58 166.31 448.82 165.55 448.82 164.66V145.05H446V164.18C446 166.66 448 168.65 450.47 168.65H480.13V145.05H477.31V166.31H477.24V166.32Z" fill="white"/>
<path d="M242.72 148.64C243.61 148.64 244.44 147.88 244.44 146.92C244.44 145.96 243.68 145.2 242.72 145.2C241.76 145.2 241 145.96 241 146.92C241 147.88 241.76 148.64 242.72 148.64Z" fill="white"/>
<path d="M227.03 148.64C227.92 148.64 228.75 147.88 228.75 146.92C228.75 145.96 227.99 145.2 227.03 145.2C226.07 145.2 225.31 145.96 225.31 146.92C225.31 147.88 226.07 148.64 227.03 148.64Z" fill="white"/>
<path d="M222.21 148.64C223.1 148.64 223.93 147.88 223.93 146.92C223.93 145.96 223.17 145.2 222.21 145.2C221.25 145.2 220.49 145.96 220.49 146.92C220.49 147.88 221.25 148.64 222.21 148.64Z" fill="white"/>
<path d="M172.73 148.64C173.62 148.64 174.45 147.88 174.45 146.92C174.45 145.96 173.69 145.2 172.73 145.2C171.77 145.2 171.01 145.96 171.01 146.92C171.01 147.88 171.77 148.64 172.73 148.64Z" fill="white"/>
<path d="M167.91 148.64C168.8 148.64 169.63 147.88 169.63 146.92C169.63 145.96 168.87 145.2 167.91 145.2C166.95 145.2 166.19 145.96 166.19 146.92C166.19 147.88 166.95 148.64 167.91 148.64Z" fill="white"/>
<path d="M171.42 166.32H168.53C165.43 166.32 162.89 163.29 162.89 160.2C162.89 157.11 165.44 154.08 168.53 154.08H171.42V166.33V166.32ZM191.72 153.59C188.62 151.39 184.84 150.91 180.71 152.28L181.6 154.48C184.83 153.38 187.79 153.72 190.13 155.37C192.81 157.3 194.53 161.91 194.88 166.24H174.24V151.65H168.6C163.92 151.65 160.14 155.43 160.14 160.11C160.14 164.79 163.92 168.57 168.6 168.57H197.71V167.19C197.71 161.34 195.51 156.25 191.79 153.56" fill="white"/>
<path d="M288 145.06H285.18V168.66H288V145.06Z" fill="white"/>
<path d="M264.39 167.08C261.91 167.08 259.92 165.08 259.92 162.61V160.2C259.92 157.72 261.92 155.73 264.39 155.73C266.86 155.73 268.86 157.73 268.86 160.2V162.61C268.86 165.09 266.86 167.08 264.39 167.08ZM237.35 158.41C237.35 156.28 239.35 154.07 241.82 154.07C244.29 154.07 246.29 156.27 246.29 158.41C246.29 161.23 244.71 163.5 241.82 164.88C238.93 163.5 237.35 161.23 237.35 158.41ZM209.2 166.32C206.1 166.32 203.56 163.29 203.56 160.2C203.56 157.11 206.11 154.08 209.2 154.08H211.54V166.33H209.2V166.32ZM277.88 166.32H274.71C272.99 166.32 271.61 164.94 271.61 163.22V160.74C271.61 156.75 268.38 153.51 264.38 153.51C260.38 153.51 257.15 156.74 257.15 160.74V163.22C257.15 164.94 255.77 166.32 254.05 166.32H249.16C247.71 166.32 246.41 166.18 245.17 165.98C245.24 165.98 245.31 165.91 245.45 165.84C247.86 164.05 249.17 161.44 249.17 158.48C249.17 154.83 245.94 151.8 241.88 151.8C237.82 151.8 234.59 154.76 234.59 158.48C234.59 161.44 235.9 164.05 238.31 165.84C238.38 165.84 238.45 165.98 238.59 165.98C237.35 166.19 236.04 166.32 234.6 166.32H227.72C226.83 166.32 226.07 165.56 226.07 164.67V152.9H223.25V164.67C223.25 165.56 222.49 166.32 221.6 166.32H214.44V151.73H209.28C204.6 151.73 200.82 155.51 200.82 160.19C200.82 164.87 204.6 168.65 209.28 168.65H211.62C211.62 170.92 210.24 172.78 208.11 173.47L209 175.67C212.23 174.57 214.37 172.16 214.37 168.79L221.53 168.72C222.77 168.72 223.87 168.31 224.7 167.62C225.46 168.24 226.49 168.72 227.66 168.72H234.54C237.36 168.72 239.77 168.38 241.83 167.69C243.89 168.38 246.3 168.72 249.12 168.72H254.01C255.87 168.72 257.45 167.89 258.55 166.59C259.86 168.38 261.99 169.55 264.4 169.55C266.81 169.55 268.87 168.38 270.25 166.59C271.35 167.9 272.93 168.72 274.79 168.72H280.78V145.12H277.96V166.38L277.89 166.31L277.88 166.32Z" fill="white"/>
<path d="M308.71 148.64C309.6 148.64 310.43 147.88 310.43 146.92C310.43 145.96 309.67 145.2 308.71 145.2C307.75 145.2 306.99 145.96 306.99 146.92C306.99 147.88 307.75 148.64 308.71 148.64Z" fill="white"/>
<path d="M303.89 148.64C304.78 148.64 305.61 147.88 305.61 146.92C305.61 145.96 304.85 145.2 303.89 145.2C302.93 145.2 302.17 145.96 302.17 146.92C302.17 147.88 302.93 148.64 303.89 148.64Z" fill="white"/>
<path d="M330.73 171.49C329.77 171.49 329.01 172.25 329.01 173.21C329.01 174.17 329.77 174.93 330.73 174.93C331.62 174.93 332.45 174.17 332.45 173.21C332.45 172.25 331.69 171.49 330.73 171.49Z" fill="white"/>
<path d="M320.27 173.27C320.27 172.31 319.51 171.55 318.55 171.55C317.66 171.55 316.83 172.31 316.83 173.27C316.83 174.23 317.59 174.99 318.55 174.99C319.51 174.99 320.27 174.23 320.27 173.27Z" fill="white"/>
<path d="M325.09 173.27C325.09 172.31 324.33 171.55 323.37 171.55C322.48 171.55 321.65 172.31 321.65 173.27C321.65 174.23 322.41 174.99 323.37 174.99C324.33 174.99 325.09 174.23 325.09 173.27Z" fill="white"/>
<path d="M379.73 145.06H376.91V168.66H379.73V145.06Z" fill="white"/>
<path d="M307.4 166.32H304.51C301.41 166.32 298.87 163.29 298.87 160.2C298.87 157.11 301.42 154.08 304.51 154.08H307.4V166.33V166.32ZM332.38 164.67C332.38 165.56 331.62 166.32 330.73 166.32H324.54C323.51 166.32 322.61 165.49 322.61 164.39V152.83H319.79V164.39C319.79 165.42 318.96 166.32 317.86 166.32H310.15V151.73H304.51C299.83 151.73 296.05 155.51 296.05 160.19C296.05 164.87 299.83 168.65 304.51 168.65H317.93C319.24 168.65 320.41 168.24 321.23 167.55C322.06 168.31 323.23 168.65 324.53 168.65H330.72C333.2 168.65 335.19 166.65 335.19 164.18V152.83H332.37V164.67H332.38Z" fill="white"/>
<path d="M369.61 166.32H358.74C355.64 166.32 353.1 163.29 353.1 160.2C353.1 157.11 355.65 154.08 358.74 154.08H363.01V151.74H358.74C354.06 151.74 350.28 155.52 350.28 160.2C350.28 162.61 351.31 164.81 352.9 166.32H345.95C344.02 166.32 342.51 164.74 342.51 162.88V152.9H339.69V168.66C339.69 170.93 337.63 172.86 335.63 173.55L336.52 175.75C339.48 174.72 342.44 171.83 342.44 168.25V167.7C343.4 168.39 344.64 168.73 345.88 168.73H372.31V145.13H369.49V166.39L369.63 166.32H369.61Z" fill="white"/>
</svg>
