<svg class="icon icon__brand-logo" viewBox="0 0 137 35" xmlns="http://www.w3.org/2000/svg"><path d="M16.366 34.988C7.666 35.31.311 28.228 0 19.105v-.537C0 9.338 7.251 1.933 16.056 2.041h.414c3.315-.215 6.526.429 9.53 1.717v6.654h-4.661v-2.79c-1.658-.43-3.419-.645-5.18-.537-5.593 0-10.047 4.722-10.047 10.517v.859c-.311 6.117 4.35 11.376 10.254 11.59h.311c1.554 0 3.108-.107 4.662-.536v-2.898H26v6.654c-3.004 1.18-6.319 1.825-9.634 1.717ZM39.228 34.894c-5.987.212-10.994-4.258-11.212-10.113v-1.384c-.326-5.854 4.354-10.964 10.45-11.39h1.306c5.987-.213 10.994 4.258 11.212 10.113v1.384c.326 5.96-4.354 11.07-10.45 11.496-.435 0-.87 0-1.306-.106Zm0-17.99c-.98 0-2.068.213-2.94.852-1.414 1.596-2.176 3.725-2.067 5.854v.213c.109 3.193 1.524 6.174 5.442 6.174.98 0 1.96-.32 2.83-.745 1.415-1.597 2.286-3.726 2.177-5.961v-.213c0-3.194-1.306-6.174-5.442-6.174ZM53 34v-3.732h2.698V3.732H53V0h8.302v30.268H64V34H53ZM66 34v-3.732h2.698V3.732H66V0h8.302v30.268H77V34H66ZM79 33.896v-3.74h2.943v-13.61H79v-3.74h9.057V30.26H91V34H79v-.104Zm6-25.143c-2.038 0-3.623-1.558-3.623-3.428C81.377 3.455 82.962 2 85 2c1.924 0 3.51 1.455 3.51 3.22v.105c0 1.766-1.586 3.324-3.51 3.428ZM106.22 33.895v-3.79h2.746c.102-3.052.102-5.79.102-7.579v-2.21c-.204-2.737-.814-3.474-2.441-3.474-.813 0-1.729.105-2.542.421-1.017.737-2.034 1.58-2.848 2.632v10.21h2.644v3.79H93v-3.79h2.644V18.842c0-.842 0-1.684-.102-2.526H93v-3.79h7.017l.508 2.527c1.526-2 3.865-3.053 6.306-3.053 7.016 0 7.728 4.526 7.728 9.263 0 2 0 5.895-.101 8.947H117V34h-10.78v-.105ZM128.453 34c-2.484 0-4.969-.306-7.453-1.12V27.48h4.075v1.936c1.093.305 2.186.407 3.279.407 2.584 0 3.18-1.324 3.18-1.935 0-3.26-10.534-2.343-10.534-9.88 0-3.666 3.081-6.009 8.348-6.009 2.385.102 4.77.51 6.956 1.324v4.889h-4.074v-1.732c-.994-.305-2.087-.509-3.18-.509-.597 0-2.684.306-2.684 1.732 0 3.157 10.634 2.648 10.634 9.574 0 3.768-2.981 6.722-8.547 6.722Z" fill="#ffffff"></path></svg>