    <svg id="Layer_1" data-name="Layer 1" xmlns="http://www.w3.org/2000/svg" viewBox="0 0 460 110.8"><defs><style>.cls-1{fill:#ffffff;}</style></defs><path class="cls-1" d="M98.57,66.81a32.73,32.73,0,0,1-2.5,4.8,45.62,45.62,0,0,1-3.1,4.2c1.9-.1,8.6-.9,13-11Z" transform="translate(-11.67 -7.31)"/><path class="cls-1" d="M67.07,7.31a55.4,55.4,0,1,0,55.4,55.4A55.4,55.4,0,0,0,67.07,7.31Zm6.4,32.8c-6.7,8.6-6.2,14-6.2,14C56.77,47.41,73.47,40.11,73.47,40.11Zm13.3,16.5-1.1,2.7H49.87l-1.2-2.7Zm-1.7,4.2-1.2,2.7H51.57l-1.1-2.7Zm-53.4-16.4c6.6,15.8.1,15.5.1,15.5C24.77,59.71,31.67,44.41,31.67,44.41Zm58.8,33.7a32.76,32.76,0,0,1-23,9.3A33.41,33.41,0,0,1,38,69.51H27.87l-2-4.7h1.9v-1.5h8.1v1.5h60.8l12.5-3.5S105.47,79.31,90.47,78.11Z" transform="translate(-11.67 -7.31)"/><polygon class="cls-1" points="138.8 50.6 138.8 19.2 127.7 19.2 127.7 15.7 154.9 15.7 154.9 19.2 143.7 19.2 143.7 50.6 138.8 50.6"/><path class="cls-1" d="M177.37,55.21c-1.7,1.7-3.9,3.3-6.2,3.3-4.2,0-7.1-3-7.1-7.7,0-4.3,3.7-7.1,8.9-8.6l6-1.9a5.14,5.14,0,0,0-5-5,9.46,9.46,0,0,0-6.5,2.7l-1.7-2.2a11.23,11.23,0,0,1,8.5-3.4c3.7,0,9.2,1.2,9.2,8.5v11a14.34,14.34,0,0,0,1.1,6.1h-4.9a8.82,8.82,0,0,1-.7-4.2l-1.6,1.4Zm-2.7-10.6c-3.9,1.2-6,3.1-6,6.2,0,2.6,1.8,4.2,3.6,4.2,3.2,0,7.3-3.9,6.7-11.7l-4.3,1.3Z" transform="translate(-11.67 -7.31)"/><path class="cls-1" d="M191.87,32.51c2.5,6.3,5.1,12.7,7.6,20.2h.1c2.6-7.5,5.2-13.9,7.8-20.2l3.9.9-12.8,28.9c-2.3,5.3-5.4,8.1-9.7,8.1h-2.2v-3.2h1.7c3.1,0,5.3-.8,8.8-10.7l-9.8-22.8,4.6-1.2Z" transform="translate(-11.67 -7.31)"/><polygon class="cls-1" points="203.7 50.6 203.7 14 208.1 14 208.1 50.6 203.7 50.6"/><path class="cls-1" d="M225.47,45.21c0-8.1,6-12.8,12.3-12.8s12.3,4.7,12.3,12.8c0,7.7-4.9,13.4-12.3,13.4s-12.3-5.7-12.3-13.4Zm4.9,0c0,4.7,1.6,10.2,7.4,10.2s7.5-5.5,7.5-10.2c0-4.5-1.8-9.6-7.5-9.6s-7.4,5.1-7.4,9.6Z" transform="translate(-11.67 -7.31)"/><path class="cls-1" d="M260.17,36.11l1.8-1.9a6.41,6.41,0,0,1,3.7-1.8,6.19,6.19,0,0,1,4.1,2.4l-2,2.9a8.36,8.36,0,0,0-3.3-1c-2.3,0-4.2,2.3-4.2,7.8v13.4h-4.5V33h4.4v3.1Z" transform="translate(-11.67 -7.31)"/><polygon class="cls-1" points="332.5 19.2 320.1 19.2 320.1 32.5 332.3 32.5 332.3 36 320.1 36 320.1 50.6 315.3 50.6 315.3 15.7 332.5 15.7 332.5 19.2"/><path class="cls-1" d="M354.87,36.11l1.8-1.9a6.7,6.7,0,0,1,3.7-1.8,6.19,6.19,0,0,1,4.1,2.4l-2,2.9a8.36,8.36,0,0,0-3.3-1c-2.3,0-4.2,2.3-4.2,7.8v13.4h-4.5V33h4.4v3.1Z" transform="translate(-11.67 -7.31)"/><path class="cls-1" d="M379.47,55.21c-1.7,1.7-3.9,3.3-6.2,3.3-4.2,0-7.1-3-7.1-7.7,0-4.3,3.7-7.1,8.9-8.6l6-1.9a5.14,5.14,0,0,0-5-5,9.46,9.46,0,0,0-6.5,2.7l-1.7-2.2a11.23,11.23,0,0,1,8.5-3.4c3.7,0,9.2,1.2,9.2,8.5v11a14.34,14.34,0,0,0,1.1,6.1h-4.9a8.82,8.82,0,0,1-.7-4.2l-1.6,1.4Zm-2.7-10.6c-3.9,1.2-6,3.1-6,6.2,0,2.6,1.8,4.2,3.6,4.2,3.2,0,7.3-3.9,6.7-11.7l-4.3,1.3Z" transform="translate(-11.67 -7.31)"/><path class="cls-1" d="M397.17,36.11a12.29,12.29,0,0,1,8.5-3.7c5.7,0,8.8,3.2,8.8,9.5V58H410V42.91c0-4.7-2-7.1-6-7.1-3.5,0-6.8,2.4-6.8,7.2V58h-4.5V33.11h4.4l.1,3Z" transform="translate(-11.67 -7.31)"/><path class="cls-1" d="M441.07,55.91a14.13,14.13,0,0,1-7.5,2.6c-11.8,0-13.3-9.7-13.3-13.1,0-6.2,4.1-13,13.5-13a11.05,11.05,0,0,1,6.7,2l-1.5,2.5a12,12,0,0,0-5.1-1.3c-4.1,0-8.7,2.7-8.7,9.5,0,5.2,2.6,10.1,8.7,10.1a10.8,10.8,0,0,0,6.1-1.8l1.1,2.5Z" transform="translate(-11.67 -7.31)"/><path class="cls-1" d="M445.27,24.81a2.81,2.81,0,1,1,2.8,3,2.76,2.76,0,0,1-2.8-3Zm5.1,8.2v24.9h-4.5V33Z" transform="translate(-11.67 -7.31)"/><path class="cls-1" d="M469.47,37a8,8,0,0,0-4.6-1.6c-1.6,0-3.6.8-3.6,2.8s2.3,3.1,5.1,5.3c3.2,2.4,5.3,4.5,5.3,8,0,4.2-4.1,7-8.7,7a11,11,0,0,1-7.7-3.1l2.2-2.5a8.51,8.51,0,0,0,5.4,2.5c2.1,0,4.2-1.1,4.2-3.5,0-2.9-2.6-4.1-4.9-5.8-2.8-2-5.3-3.7-5.3-7.1,0-3.9,3.9-6.4,8.3-6.4a9.09,9.09,0,0,1,6.1,2.3l-1.8,2.1Z" transform="translate(-11.67 -7.31)"/><path class="cls-1" d="M308,49.81a15.51,15.51,0,0,0,1.3-10h-3.9c.8,2.6.9,5.6-.1,7.6L294.07,37c-3.4-3.1-4.7-5-4.7-7,0-2.2,1.6-4,4.9-4a9,9,0,0,1,4.9,1.7l1.7-2.8a11.7,11.7,0,0,0-7.1-2.4c-5.6,0-9.3,3.7-9.3,7.8,0,3.6,2.6,6,4.5,7.8-4.1,1.9-7.5,5.5-7.5,10.1,0,2.1,1.5,10.4,12.4,10.4a15.41,15.41,0,0,0,11.5-5.2l5.7,5.2,4.4-2.2Zm-13.4,5.4a7.67,7.67,0,0,1-7.8-7.6,7.78,7.78,0,0,1,4.5-7.2L303.07,51A11.1,11.1,0,0,1,294.57,55.21Z" transform="translate(-11.67 -7.31)"/><path class="cls-1" d="M159.17,103.81c-1.3,0-1.8-1.2-1.6-2.3a5.51,5.51,0,0,1-5.1,2.5,4.48,4.48,0,0,1-4.5-4.5c0-5.1,5.5-6.3,9.5-6.5V92c0-2-1.1-3.7-3.2-3.7a15.69,15.69,0,0,0-4.3.9V88a9.86,9.86,0,0,1,5-1.6,4.86,4.86,0,0,1,5.1,5v7.8a8.61,8.61,0,0,0,.3,2.8c.2.3.6.2,1,.2v1.2A6.43,6.43,0,0,1,159.17,103.81Zm-1.7-9c-2.4,0-7,.7-7,4,0,2,.9,3.2,3,3.2,3.4,0,4-3,4-5.8Z" transform="translate(-11.67 -7.31)"/><path class="cls-1" d="M175.87,103.61V92.71c0-2.4-.6-4.1-3.4-4.1a9.38,9.38,0,0,0-5,1.7v13.3H165V87h2.5v1.3a16,16,0,0,1,6-1.8c3.9,0,4.9,2.9,4.9,6.3v10.8Z" transform="translate(-11.67 -7.31)"/><path class="cls-1" d="M191.77,84.91a2.26,2.26,0,0,1-2.3-2.3,2.33,2.33,0,0,1,2.3-2.3,2.26,2.26,0,0,1,2.3,2.3A2.33,2.33,0,0,1,191.77,84.91Zm-2.2,18.7V87H194v16.6Z" transform="translate(-11.67 -7.31)"/><path class="cls-1" d="M209,103.61V93.51c0-1.8-.2-3.8-2.5-3.8a8.12,8.12,0,0,0-4,1.2v12.7h-4.4V87h4.4v1.7a11.18,11.18,0,0,1,5.8-2.2c3.5,0,5.1,2.6,5.1,5.9v11.3l-4.4-.1Z" transform="translate(-11.67 -7.31)"/><path class="cls-1" d="M225.47,83.41c-2.4,0-2.9,1.4-2.9,3.5h4.6v2.6h-4.6v14h-4.4v-14h-2.7v-2.6h2.7c0-3.6,1.6-6.2,5.5-6.2a8.61,8.61,0,0,1,3.8,1v1.8C226.77,83.51,226.07,83.41,225.47,83.41Z" transform="translate(-11.67 -7.31)"/><path class="cls-1" d="M236.87,104c-5.6,0-8.6-3.4-8.6-8.9s3-8.7,8.6-8.7,8.6,3.2,8.6,8.7S242.57,104,236.87,104Zm0-14.6c-3.2,0-4.3,3-4.3,5.8s1,6.1,4.3,6.1,4.3-3.3,4.3-6.1S240.07,89.41,236.87,89.41Z" transform="translate(-11.67 -7.31)"/><path class="cls-1" d="M256.77,89.91a5.82,5.82,0,0,0-3.9,1.9v11.8h-4.4V87h4.4v2.2c.8-1.6,3.5-2.7,5.2-2.7h.6v3.9A3.39,3.39,0,0,0,256.77,89.91Z" transform="translate(-11.67 -7.31)"/><path class="cls-1" d="M282.07,103.61V93.51c0-1.9-.4-3.8-2.6-3.8a6.1,6.1,0,0,0-3.4,1.2,6.15,6.15,0,0,1,.1,1.4v11.3h-4.5V93.51c0-1.8-.2-3.8-2.5-3.8a6.1,6.1,0,0,0-3.4,1.2v12.7h-4.4V87h4.4v1.7a10.22,10.22,0,0,1,5.4-2.2,4.31,4.31,0,0,1,4.2,2.5c1.6-1.1,4-2.5,6-2.5,3.6,0,5.1,2.6,5.1,5.9v11.3l-4.4-.1Z" transform="translate(-11.67 -7.31)"/><path class="cls-1" d="M301.17,103.81c-1.7,0-1.6-1.5-1.8-2.6a7.34,7.34,0,0,1-5.4,2.9c-2.7,0-5.1-1.8-5.1-4.7,0-5.4,6-6.1,10.2-6.2v-1c0-1.9-1.6-2.8-3.3-2.8a14.16,14.16,0,0,0-5,.8v-1.9a11.34,11.34,0,0,1,5.9-1.8c3.3,0,6.7,1.4,6.7,5.2v6.4c0,.6-.1,3.6.4,4a1.7,1.7,0,0,0,.7.1v1.5C303.37,103.61,302.27,103.81,301.17,103.81Zm-8-5.1a2.34,2.34,0,0,0,2.4,2.5,3.52,3.52,0,0,0,3.5-3.4v-2.4C297.17,95.51,293.17,96.21,293.17,98.71Z" transform="translate(-11.67 -7.31)"/><path class="cls-1" d="M322.07,104a17.55,17.55,0,0,1-4.9-1.2v.8h-2.5V80.51h2.5v9a6.56,6.56,0,0,1,5.4-3c4.7,0,6.5,4.3,6.5,8.4C329.07,99.21,327.07,104,322.07,104Zm0-15.3c-2.4,0-4.8,1.7-4.8,4.3v8.2a14.46,14.46,0,0,0,4.6.9c3.6,0,4.7-3.9,4.7-6.8C326.57,92.21,325.67,88.71,322.07,88.71Z" transform="translate(-11.67 -7.31)"/><path class="cls-1" d="M343.67,103.61v-1.7c-1.6.9-4.2,2.1-6,2.1-3.9,0-4.9-2.9-4.9-6.3V86.91h2.5v10.9c0,2.4.6,4.1,3.4,4.1a8.48,8.48,0,0,0,5-2v-13h2.5v16.6h-2.5Z" transform="translate(-11.67 -7.31)"/><path class="cls-1" d="M355.67,104a11.42,11.42,0,0,1-5.3-1.7v-1.9a12.44,12.44,0,0,0,5.2,1.8c1.8,0,3.4-1,3.4-2.9,0-3.8-8.8-2.1-8.8-8,0-3.1,2.7-4.8,5.6-4.8a8.74,8.74,0,0,1,4.5,1.3v1.5a12.38,12.38,0,0,0-4.6-.9c-1.7,0-3.2.9-3.2,2.7,0,3.5,8.9,2.2,8.9,7.9C361.47,102.21,358.57,104,355.67,104Z" transform="translate(-11.67 -7.31)"/><path class="cls-1" d="M366.57,84a1.5,1.5,0,1,1,1.5-1.5A1.47,1.47,0,0,1,366.57,84Zm-1.4,19.6V87h2.5v16.6Z" transform="translate(-11.67 -7.31)"/><path class="cls-1" d="M383.77,103.61V92.71c0-2.4-.6-4.1-3.4-4.1a9.38,9.38,0,0,0-5,1.7v13.3h-2.5V87h2.5v1.3a16,16,0,0,1,6-1.8c3.9,0,4.9,2.9,4.9,6.3v10.8Z" transform="translate(-11.67 -7.31)"/><path class="cls-1" d="M392.37,95.61c0,3.4,1.8,6.4,5.5,6.4a17.53,17.53,0,0,0,5.1-.8V103a14.36,14.36,0,0,1-5.4,1c-5.3,0-7.7-3.5-7.7-8.6,0-4.8,2.3-8.8,7.5-8.8,4.5,0,6.4,3.8,6.4,7.8v1.2Zm4.8-7.3c-2.9,0-4.8,3.1-4.8,5.7h9.1C401.47,91.51,400.17,88.31,397.17,88.31Z" transform="translate(-11.67 -7.31)"/><path class="cls-1" d="M412,104a11.42,11.42,0,0,1-5.3-1.7v-1.9a12.44,12.44,0,0,0,5.2,1.8c1.8,0,3.4-1,3.4-2.9,0-3.8-8.8-2.1-8.8-8,0-3.1,2.7-4.8,5.6-4.8a8.74,8.74,0,0,1,4.5,1.3v1.5a12.38,12.38,0,0,0-4.6-.9c-1.7,0-3.2.9-3.2,2.7,0,3.5,8.9,2.2,8.9,7.9C417.87,102.21,415,104,412,104Z" transform="translate(-11.67 -7.31)"/><path class="cls-1" d="M425.87,104a11.42,11.42,0,0,1-5.3-1.7v-1.9a12.44,12.44,0,0,0,5.2,1.8c1.8,0,3.4-1,3.4-2.9,0-3.8-8.8-2.1-8.8-8,0-3.1,2.7-4.8,5.6-4.8a8.74,8.74,0,0,1,4.5,1.3v1.5a12.38,12.38,0,0,0-4.6-.9c-1.7,0-3.2.9-3.2,2.7,0,3.5,8.9,2.2,8.9,7.9C431.77,102.21,428.87,104,425.87,104Z" transform="translate(-11.67 -7.31)"/></svg>        